<?xml version="1.0" ?><!DOCTYPE svg  PUBLIC '-//W3C//DTD SVG 1.0//EN'  'http://www.w3.org/TR/2001/REC-SVG-20010904/DTD/svg10.dtd'><svg height="110px" style="enable-background:new 0 0 110 110;" version="1.0" viewBox="0 0 110 110" width="110px" xml:space="preserve" xmlns="http://www.w3.org/2000/svg" xmlns:xlink="http://www.w3.org/1999/xlink"><g id="Artboard"/><g id="Multicolor"><circle cx="55" cy="55" r="55" style="fill:#32BEA6;"/><g><path d="M81,37.5H23v-5.437c0-3.003,2.434-5.438,5.437-5.438h47.125c3.003,0,5.438,2.434,5.438,5.438V37.5z    " style="fill:#DF2C2C;"/><path d="M28.437,26.625c-3.003,0-5.437,2.435-5.437,5.438V37.5h12.952l10.875-10.875H28.437z" style="fill:#FA5655;"/><path d="M81,75.563C81,78.566,78.566,81,75.562,81H28.437C25.434,81,23,78.566,23,75.563V37.5h58V75.563z" style="fill:#FFFFFF;"/><rect height="8.156" style="fill:#40C9E7;" width="9.062" x="42.031" y="44.75"/><rect height="8.156" style="fill:#C9F2F8;" width="9.062" x="42.031" y="54.719"/><rect height="8.156" style="fill:#C9F2F8;" width="9.062" x="52.906" y="54.719"/><rect height="8.156" style="fill:#C9F2F8;" width="9.969" x="30.25" y="44.75"/><rect height="8.156" style="fill:#C9F2F8;" width="9.062" x="52.906" y="44.75"/><rect height="8.156" style="fill:#C9F2F8;" width="9.062" x="63.781" y="44.75"/><rect height="8.156" style="fill:#C9F2F8;" width="9.969" x="30.25" y="54.719"/><rect height="9.062" style="fill:#40C9E7;" width="9.969" x="30.25" y="64.688"/><rect height="9.062" style="fill:#C9F2F8;" width="9.062" x="42.031" y="64.688"/><path d="M35.687,31.156c0,1.495-1.223,2.719-2.719,2.719l0,0c-1.495,0-2.719-1.223-2.719-2.719v-5.438    c0-1.495,1.223-2.719,2.719-2.719l0,0c1.495,0,2.719,1.223,2.719,2.719V31.156z" style="fill:#3E3E3F;"/><path d="M73.75,31.156c0,1.495-1.223,2.719-2.719,2.719l0,0c-1.495,0-2.719-1.223-2.719-2.719v-5.438    c0-1.495,1.223-2.719,2.719-2.719l0,0c1.495,0,2.719,1.223,2.719,2.719V31.156z" style="fill:#3E3E3F;"/><path d="M54.719,31.156c0,1.495-1.223,2.719-2.719,2.719l0,0c-1.495,0-2.719-1.223-2.719-2.719v-5.438    C49.281,24.223,50.505,23,52,23l0,0c1.495,0,2.719,1.223,2.719,2.719V31.156z" style="fill:#3E3E3F;"/><circle cx="70" cy="70" r="17" style="fill:#3E3E3F;"/><path d="M70,53c-9.389,0-17,7.611-17,17c0,4.722,1.928,8.992,5.036,12.072l24.037-24.037    C78.992,54.928,74.722,53,70,53z" style="fill:#5B5C5F;"/><circle cx="70" cy="70" r="13" style="fill:#F0F1F1;"/><path d="M70,57c-7.18,0-13,5.82-13,13c0,3.617,1.479,6.887,3.864,9.244l18.379-18.379    C76.887,58.479,73.617,57,70,57z" style="fill:#FFFFFF;"/><g><path d="M76,76h-7c-1.104,0-2-0.896-2-2V62c0-1.104,0.896-2,2-2s2,0.896,2,2v10h5c1.104,0,2,0.896,2,2     S77.104,76,76,76z" style="fill:#DF2C2C;"/></g><path d="M69,60c-1.104,0-2,0.896-2,2v11.107l4-4V62C71,60.896,70.104,60,69,60z" style="fill:#FA5655;"/></g></g></svg>