<?xml version="1.0" ?><!DOCTYPE svg  PUBLIC '-//W3C//DTD SVG 1.0//EN'  'http://www.w3.org/TR/2001/REC-SVG-20010904/DTD/svg10.dtd'><svg height="110px" style="enable-background:new 0 0 110 110;" version="1.0" viewBox="0 0 110 110" width="110px" xml:space="preserve" xmlns="http://www.w3.org/2000/svg" xmlns:xlink="http://www.w3.org/1999/xlink"><g id="Artboard"/><g id="Multicolor"><circle cx="55" cy="55" r="55" style="fill:#32BEA6;"/><g><circle cx="47" cy="47.016" r="24" style="fill:#F0F1F1;"/><path d="M47,23.016c-13.255,0-24,10.745-24,24c0,6.682,2.733,12.724,7.139,17.075l33.936-33.936    C59.723,25.748,53.682,23.016,47,23.016z" style="fill:#FFFFFF;"/><g><path d="M55,48.516h-8c-0.829,0-1.5-0.672-1.5-1.5v-15c0-0.828,0.671-1.5,1.5-1.5s1.5,0.672,1.5,1.5v13.5     H55c0.829,0,1.5,0.672,1.5,1.5S55.829,48.516,55,48.516z" style="fill:#DF2C2C;"/></g><path d="M48.5,45.516v-13.5c0-0.828-0.671-1.5-1.5-1.5s-1.5,0.672-1.5,1.5v15    c0,0.469,0.219,0.882,0.556,1.157l2.657-2.657H48.5z" style="fill:#FA5655;"/><path d="M66,47.016c0,0.552-0.448,1-1,1h-3c-0.552,0-1-0.448-1-1s0.448-1,1-1h3    C65.552,46.016,66,46.463,66,47.016z" style="fill:#CFD3D4;"/><path d="M60.435,33.581c0.391,0.391,0.391,1.024,0,1.414l-2.121,2.121c-0.391,0.391-1.024,0.391-1.414,0    c-0.391-0.391-0.391-1.024,0-1.414l2.121-2.121C59.411,33.19,60.045,33.19,60.435,33.581z" style="fill:#CFD3D4;"/><path d="M28,47.016c0-0.552,0.448-1,1-1h3c0.552,0,1,0.448,1,1s-0.448,1-1,1h-3    C28.448,48.016,28,47.568,28,47.016z" style="fill:#CFD3D4;"/><path d="M33.565,33.581c0.391-0.391,1.024-0.391,1.414,0l2.121,2.121c0.391,0.391,0.391,1.024,0,1.414    c-0.391,0.391-1.024,0.391-1.414,0l-2.121-2.121C33.174,34.604,33.174,33.971,33.565,33.581z" style="fill:#CFD3D4;"/><path d="M33.565,60.451c-0.391-0.391-0.391-1.024,0-1.414l2.121-2.121c0.391-0.391,1.024-0.391,1.414,0    c0.391,0.391,0.391,1.024,0,1.414l-2.121,2.121C34.589,60.841,33.955,60.841,33.565,60.451z" style="fill:#CFD3D4;"/><path d="M57,75.016v-17h-7.264c-0.749,0-1.444,0.389-1.836,1.026l-4.986,8.048    c-0.209,0.34-0.32,0.731-0.32,1.13v13.046h14.375h25.875L85,74.797L57,75.016z" style="fill:#0484AB;"/><path d="M49.625,82.016h-6.828c-0.992,0-1.797-0.804-1.797-1.797s0.804-1.797,1.797-1.797h6.828V82.016z" style="fill:#E2E4E5;"/><rect height="3.594" style="fill:#E2E4E5;" width="32.344" x="51.656" y="78.422"/><g><circle cx="48.984" cy="82.016" r="4.984" style="fill:#3E3E3F;"/><circle cx="48.984" cy="82.016" r="1.994" style="fill:#CFD3D4;"/></g><path d="M87,73.578c0,0.794-0.644,1.438-1.438,1.438H57V50.453c0-0.794,0.644-1.438,1.437-1.438h27.125    c0.794,0,1.438,0.644,1.438,1.438V73.578z" style="fill:#FBE158;"/><circle cx="75.984" cy="82.016" r="4.984" style="fill:#3E3E3F;"/><circle cx="75.984" cy="82.016" r="1.994" style="fill:#CFD3D4;"/><rect height="2" style="fill:#21B2D1;" width="5" x="49" y="70.016"/><polygon points="54,61.016 54,67.016 45,67.016 49,61.016   " style="fill:#40C9E7;"/><path d="M56.809,58.016h-7.073c-0.749,0-1.444,0.389-1.836,1.026l-4.986,8.048    c-0.209,0.34-0.32,0.731-0.32,1.13v4.011L56.809,58.016z" style="fill:#059BBF;"/><polygon points="49,61.016 45,67.016 47.809,67.016 53.809,61.016   " style="fill:#6FDAF1;"/><path d="M83,55.016c0,0.552-0.448,1-1,1H62c-0.552,0-1-0.448-1-1s0.448-1,1-1h20    C82.552,54.016,83,54.463,83,55.016z" style="fill:#F3B607;"/><path d="M83,62.016c0,0.552-0.448,1-1,1H62c-0.552,0-1-0.448-1-1s0.448-1,1-1h20    C82.552,61.016,83,61.463,83,62.016z" style="fill:#F3B607;"/><path d="M83,69.016c0,0.552-0.448,1-1,1H62c-0.552,0-1-0.448-1-1s0.448-1,1-1h20    C82.552,68.016,83,68.463,83,69.016z" style="fill:#F3B607;"/></g></g></svg>