<?xml version="1.0" encoding="utf-8"?>
<!-- Generator: Adobe Illustrator 18.1.1, SVG Export Plug-In . SVG Version: 6.00 Build 0)  -->
<!DOCTYPE svg PUBLIC "-//W3C//DTD SVG 1.1//EN" "http://www.w3.org/Graphics/SVG/1.1/DTD/svg11.dtd">
<svg version="1.1" id="Layer_1" xmlns="http://www.w3.org/2000/svg" xmlns:xlink="http://www.w3.org/1999/xlink" x="0px" y="0px"
	 viewBox="0 0 309.2 163.8" enable-background="new 0 0 309.2 163.8" xml:space="preserve">
<g>
	<g>
		<g>
			<g>
				<path fill="none" stroke="#FFFFFF" stroke-width="10" stroke-linecap="round" stroke-miterlimit="10" d="M195.5,39.7"/>
			</g>
		</g>
		<g>
			<g>
				<path fill="none" stroke="#5D5E5E" stroke-width="10" stroke-miterlimit="10" d="M154.1,33.7"/>
			</g>
		</g>
		<g>
			<path fill="#EB4536" d="M180.9,3.8L180.9,3.8L180.9,3.8z"/>
		</g>
		<g>
			<g>
				<polygon fill="#EB4536" points="183.4,26.6 183.4,63.1 124.8,63.1 124.8,4.4 174,4.4 178.5,0 120.4,0 120.4,67.5 187.9,67.5 
					187.9,26.6 				"/>
			</g>
			<g>
				<path fill="#EB4536" d="M184.7,0l-32.2,32.2l3.1,3.1l30-30l0,0l0.9-0.9h34.2c-0.9,2.6-3.4,4.4-6.3,4.4H189v0h-0.6l-4.4,4.4h28
					c-0.9,2.6-3.4,4.4-6.3,4.4h-26.1l-4.4,4.4h8.4l0,0h4.4l0,0h17.9c5.4,0,9.9-3.9,10.9-9c5.1-1,9-5.5,9-10.9V0H184.7z"/>
			</g>
		</g>
	</g>
	<g>
		<path d="M215.7,47.5c-0.6-0.7-1-1.6-0.8-2.9l0.4-4.9l1.6,0.1l-0.4,5c-0.1,0.8,0.1,1.3,0.4,1.6c0.3,0.4,0.8,0.6,1.4,0.7
			c0.6,0,1.1-0.1,1.5-0.4c0.4-0.3,0.6-0.7,0.7-1.5l0.4-5l1.6,0.1l-0.4,4.9c-0.1,1.3-0.6,2.1-1.3,2.7c-0.7,0.5-1.6,0.7-2.6,0.7
			S216.3,48.2,215.7,47.5z"/>
		<path d="M225.2,46.9c0.4,0.6,1.1,1,1.9,1.1c0.7,0.1,1.3-0.3,1.3-0.9c0.1-1.1-1.4-1.4-2.5-2.1c-0.6-0.4-1.1-1.1-1-2
			c0.1-1.5,1.6-2.2,3-2.1c0.9,0.1,1.6,0.4,2.4,1l-1,1.1c-0.3-0.3-0.8-0.6-1.4-0.7c-0.6-0.1-1.3,0.1-1.4,0.8
			c-0.1,1.4,3.8,1.3,3.5,4.1c-0.1,1.5-1.6,2.4-3.1,2.2c-1.1-0.1-2.1-0.7-2.9-1.6L225.2,46.9z"/>
		<path d="M231.5,49.7l4.5-8l1.1,0.1l2.7,8.8l-1.7-0.2l-0.6-1.9l-3.4-0.4l-1,1.8L231.5,49.7z M234.9,46.8l2.1,0.2l-0.8-2.6
			L234.9,46.8z"/>
	</g>
	<g>
		<path d="M69.6,46.3c0.2,1.6,1.6,2.7,3.2,2.6c1.1-0.1,1.8-0.7,2.2-1.4l1.2,0.9c-0.6,1-1.8,1.8-3.3,2c-2.6,0.3-4.7-1.4-4.9-3.8
			c-0.3-2.4,1.3-4.5,3.9-4.8c1.2-0.1,2.4,0.2,3.2,0.9l-0.9,1.2c-0.6-0.4-1.3-0.7-2.1-0.6C70.5,43.3,69.4,44.7,69.6,46.3z"/>
		<path d="M84.2,45.2L80,45.6l0.4,3.8l-1.6,0.2l-0.8-8.4l1.6-0.2l0.3,3.2l4.2-0.4l-0.3-3.2l1.6-0.2l0.8,8.4L84.5,49L84.2,45.2z"/>
		<path d="M88.6,40.2l1.6-0.1l0.7,8.4l-1.6,0.1L88.6,40.2z"/>
	</g>
	<g>
		<path fill="#EB4536" d="M5.2,132.8c3.1,3.7,7.4,6.7,12.8,6.7c4.9,0,9.1-3.1,9.1-7.8c0-8-11.1-8.9-18-13.4c-3.7-2.5-6.6-6-6.6-11.5
			c0-7.6,6.7-13.9,15.8-13.9c6.6,0,11.3,2.9,14,5.2l-4.4,5.5c-2.8-2.4-6-3.6-9.3-3.6c-4.3,0-8.7,2.5-8.7,7c0,6.6,11.1,8.1,17.8,12.5
			c3.5,2.3,6.8,6,6.8,11.9c0,9.2-7.1,15.2-16.2,15.2c-7.2,0-13.7-3.1-18.3-8.7L5.2,132.8z"/>
		<path fill="#EB4536" d="M50.9,113.9c1.9-1.6,5.5-3.8,10.3-3.8c5.2,0,9.8,2.4,12.8,6.2c2.2,2.8,3.4,6.4,3.4,12.5v17.2h-7.1v-17.5
			c0-4.5-0.8-6.6-2.1-8.1c-1.6-2.1-4.3-3.4-7.2-3.4c-4.6,0-8,2.5-10.1,5v24.1h-7.1v-53h7.1V113.9z"/>
		<path fill="#EB4536" d="M92.9,93.6c2.6,0,4.7,2.1,4.7,4.7c0,2.6-2.1,4.6-4.7,4.6c-2.6,0-4.6-2-4.6-4.6
			C88.3,95.7,90.3,93.6,92.9,93.6z M89.4,110.8h7.1v35.1h-7.1V110.8z"/>
		<path fill="#EB4536" d="M116.3,163.8h-7.1v-53h6.9v3.2c3.2-2.8,7-4,11-4c3.3,0,6.2,0.8,8.6,2.2c5.3,3.1,9,9,9,16.1
			c0,7-3.7,12.8-9,16c-2.4,1.4-5.7,2.3-8.8,2.3c-4.2,0-7.8-1.3-10.6-3.8V163.8z M116.3,134.9c2.4,3.2,6,5,9.6,5
			c6.8,0,11.6-5.3,11.6-11.6c0-6.1-4.5-11.6-11.3-11.6c-4.3,0-7.8,2.2-10,5V134.9z"/>
		<path fill="#EB4536" d="M174.1,99.2c-0.5-0.1-1.6-0.3-2.6-0.3c-2,0-4.2,0.9-5.4,2.5c-1,1.3-1.3,3.1-1.3,6.3v3.2h10.8v6.3h-10.8
			v28.7h-7.1v-28.7h-8.2v-6.3h8.2v-3c0-4.7,0.7-7.6,2.2-9.9c2.5-3.7,6.7-5.8,11.5-5.8c1.5,0,3.2,0.2,4.2,0.5L174.1,99.2z"/>
		<path fill="#EB4536" d="M208.3,142.7c-2.8,2.5-6.6,4-10.8,4c-3.1,0-6.4-0.9-8.8-2.3c-5.3-3.1-9-9-9-16c0-7,3.7-12.9,9-16.1
			c2.4-1.4,5.3-2.2,8.6-2.2c4,0,7.8,1.2,11,4v-3.2h6.9v35.1h-6.9V142.7z M208.1,121.8c-2.2-2.8-5.7-5-10-5
			c-6.8,0-11.3,5.5-11.3,11.6c0,6.3,4.9,11.6,11.6,11.6c3.6,0,7.2-1.8,9.6-5V121.8z"/>
		<path fill="#EB4536" d="M231.4,93.6c2.6,0,4.7,2.1,4.7,4.7c0,2.6-2.1,4.6-4.7,4.6c-2.6,0-4.6-2-4.6-4.6
			C226.8,95.7,228.8,93.6,231.4,93.6z M227.9,110.8h7.1v35.1h-7.1V110.8z"/>
		<path fill="#EB4536" d="M267,117.1c-0.8-0.2-1.6-0.3-2.8-0.3c-3.7,0-7.5,2.5-9.5,5.9v23.2h-7.1v-35.1h6.9v4
			c1.7-2.4,5.4-4.8,10.5-4.8c0.7,0,1.9,0.1,2.8,0.2L267,117.1z"/>
		<path fill="#EB4536" d="M278.6,163.8l9.5-21.6l-15-31.4h7.6l11,23.1l10.1-23.1h7.5l-23.1,53H278.6z"/>
	</g>
</g>
</svg>
