<?xml version="1.0" ?><!DOCTYPE svg  PUBLIC '-//W3C//DTD SVG 1.1//EN'  'http://www.w3.org/Graphics/SVG/1.1/DTD/svg11.dtd'><svg enable-background="new 0 0 512 512" height="512px" id="Layer_1" version="1.1" viewBox="0 0 512 512" width="512px" xml:space="preserve" xmlns="http://www.w3.org/2000/svg" xmlns:xlink="http://www.w3.org/1999/xlink"><g><path clip-rule="evenodd" d="M512,127.885v368.242c0,8.608-7.265,15.873-15.873,15.873H15.874   C7.257,512,0,504.735,0,496.127V127.885C14.507,89.788,28.567,51.698,43.082,13.147C45.8,5.89,53.963,0,61.22,0h389.552   c7.249,0,15.42,5.89,18.139,13.147C483.425,51.698,497.486,89.788,512,127.885L512,127.885z" fill="#F0AA52" fill-rule="evenodd"/><path clip-rule="evenodd" d="M24.037,415.854h144.211c4.078,0,7.71,3.624,7.71,8.155v63.946   c0,4.53-3.632,8.171-7.71,8.171H24.037c-4.539,0-8.163-3.641-8.163-8.171V424.01C15.874,419.479,19.498,415.854,24.037,415.854   L24.037,415.854z" fill="#FFD67B" fill-rule="evenodd"/><path clip-rule="evenodd" d="M32.2,432.181h127.885v15.873H32.2V432.181z M32.2,463.928   h127.885v15.873H32.2V463.928z" fill="#CFA63C" fill-rule="evenodd"/><path clip-rule="evenodd" d="M0,127.885h512c-14.514-38.097-28.575-76.187-43.089-114.737   C466.192,5.89,458.021,0,450.772,0H61.22C53.963,0,45.8,5.89,43.082,13.147C28.567,51.698,14.507,89.788,0,127.885L0,127.885z" fill="#D28F36" fill-rule="evenodd"/><polygon clip-rule="evenodd" fill="#EABD56" fill-rule="evenodd" points="204.072,0 307.929,0 319.708,127.885 191.823,127.885     "/><path clip-rule="evenodd" d="M191.823,127.885h128.338v56.229c0,4.539-3.624,7.71-8.155,7.71   H199.987c-4.531,0-8.164-3.171-8.164-7.71V127.885z" fill="#FFD67B" fill-rule="evenodd"/><path clip-rule="evenodd" d="M224.023,224.023l-48.065,48.064   c-15.873,15.874-15.873,24.045-15.873,31.747c0,8.171,8.163,16.326,15.873,16.326h32.192v95.693   c0,9.062,7.257,16.326,15.874,16.326h63.938c9.077,0,15.873-7.265,15.873-16.326v-95.693h32.199   c8.172,0,15.874-8.155,15.874-16.326c0-7.702,0-15.873-15.874-31.747l-48.072-48.064c-11.327-11.335-20.857-15.874-31.731-15.874   C244.888,208.15,235.366,212.688,224.023,224.023L224.023,224.023z" fill="#B77B37" fill-rule="evenodd"/></g></svg>